HIERARCHY
ROOT Hips
{
	OFFSET -0.001795 -0.223333 0.028219
	CHANNELS 6 Xposition Yposition Zposition Zrotation Yrotation Xrotation 
	JOINT LeftUpLeg
	{
		OFFSET 0.069520 -0.091406 -0.006815
		CHANNELS 3 Zrotation Yrotation Xrotation
		JOINT LeftLeg
		{
			OFFSET 0.034277 -0.375199 -0.004496
			CHANNELS 3 Zrotation Yrotation Xrotation
			JOINT LeftFoot
			{
				OFFSET -0.013596 -0.397961 -0.043693
				CHANNELS 3 Zrotation Yrotation Xrotation
				JOINT LeftToe
				{
					OFFSET 0.026358 -0.055791 0.119288
					CHANNELS 3 Zrotation Yrotation Xrotation
					End Site
					{
						OFFSET 0.000000 0.000000 0.000000
					}
				}
			}
		}
	}
	JOINT RightUpLeg
	{
		OFFSET -0.067670 -0.090522 -0.004320
		CHANNELS 3 Zrotation Yrotation Xrotation
		JOINT RightLeg
		{
			OFFSET -0.038290 -0.382569 -0.008850
			CHANNELS 3 Zrotation Yrotation Xrotation
			JOINT RightFoot
			{
				OFFSET 0.015774 -0.398415 -0.042312
				CHANNELS 3 Zrotation Yrotation Xrotation
				JOINT RightToe
				{
					OFFSET -0.025372 -0.048144 0.123348
					CHANNELS 3 Zrotation Yrotation Xrotation
					End Site
					{
						OFFSET 0.000000 0.000000 0.000000
					}
				}
			}
		}
	}
	JOINT Spine
	{
		OFFSET -0.002533 0.108963 -0.026696
		CHANNELS 3 Zrotation Yrotation Xrotation
		JOINT Spine1
		{
			OFFSET 0.005487 0.135180 0.001092
			CHANNELS 3 Zrotation Yrotation Xrotation
			JOINT Spine2
			{
				OFFSET 0.001457 0.052922 0.025425
				CHANNELS 3 Zrotation Yrotation Xrotation
				JOINT Neck
				{
					OFFSET -0.002778 0.213870 -0.042857
					CHANNELS 3 Zrotation Yrotation Xrotation
					JOINT Head
					{
						OFFSET 0.005152 0.064970 0.051349
						CHANNELS 3 Zrotation Yrotation Xrotation
						End Site
						{
							OFFSET 0.000000 0.000000 0.000000
						}
					}
				}
				JOINT LeftShoulder
				{
					OFFSET 0.078845 0.121749 -0.034090
					CHANNELS 3 Zrotation Yrotation Xrotation
					JOINT LeftArm
					{
						OFFSET 0.090977 0.030469 -0.008868
						CHANNELS 3 Zrotation Yrotation Xrotation
						JOINT LeftForeArm
						{
							OFFSET 0.259612 -0.012772 -0.027456
							CHANNELS 3 Zrotation Yrotation Xrotation
							JOINT LeftHand
							{
								OFFSET 0.249234 0.008986 -0.001171
								CHANNELS 3 Zrotation Yrotation Xrotation
								End Site
								{
									OFFSET 0.000000 0.000000 0.000000
								}
							}
						}
					}
				}
				JOINT RightShoulder
				{
					OFFSET -0.081759 0.118833 -0.038615
					CHANNELS 3 Zrotation Yrotation Xrotation
					JOINT RightArm
					{
						OFFSET -0.096012 0.032551 -0.009143
						CHANNELS 3 Zrotation Yrotation Xrotation
						JOINT RightForeArm
						{
							OFFSET -0.253742 -0.013329 -0.021401
							CHANNELS 3 Zrotation Yrotation Xrotation
							JOINT RightHand
							{
								OFFSET -0.255298 0.007772 -0.005559
								CHANNELS 3 Zrotation Yrotation Xrotation
								End Site
								{
									OFFSET 0.000000 0.000000 0.000000
								}
							}
						}
					}
				}
			}
		}
	}
}
MOTION
Frames: 16
Frame Time: 0.050000
-0.033587 0.947762 -0.037366 0.441079 -21.844480 13.566577 5.624090 -0.238840 -13.209736 -0.136517 0.112644 -3.205249 2.409004 6.076860 15.131762 0.000000 0.000000 0.000000 -1.156733 0.797291 -8.078723 -6.315361 -0.402388 -13.169524 -0.778927 -12.170323 19.457930 0.000000 0.000000 0.000000 5.217007 -0.076915 -1.525829 -6.765052 3.224212 -0.553362 -4.196574 21.148862 -6.892847 23.001988 -17.034866 -3.566357 0.000000 0.000000 0.000000 -9.074597 -6.971644 0.438406 -38.334618 -15.991764 1.568748 -69.738267 -43.385832 28.512597 0.000000 0.000000 0.000000 4.469122 5.068923 2.368003 35.897236 25.902559 4.557488 2.956912 41.797912 3.804124 0.000000 0.000000 0.000000 
-0.033884 0.947639 -0.037855 0.509343 -20.964497 13.510049 5.360237 -0.300719 -13.175776 0.383898 0.066842 -3.542378 1.968865 5.495850 15.115799 0.000000 0.000000 0.000000 -0.999463 0.784967 -7.996415 -6.552198 -0.414676 -13.016435 -1.242614 -12.729518 19.482111 0.000000 0.000000 0.000000 5.502482 -0.061527 -1.760682 -6.866796 3.284043 -0.428789 -3.918269 21.231506 -7.313107 22.836572 -16.719980 -3.892276 0.000000 0.000000 0.000000 -8.005545 -7.344489 0.720165 -38.295211 -17.837226 2.105773 -68.920768 -45.609273 29.570942 0.000000 0.000000 0.000000 4.706094 6.305493 2.961663 36.873400 28.524968 5.634072 -1.077782 41.492414 2.330442 0.000000 0.000000 0.000000 
-0.033965 0.947920 -0.037940 0.649371 -19.852292 13.205998 4.965055 -0.378494 -13.172592 0.973432 0.001272 -3.444077 1.405426 4.747481 15.041741 0.000000 0.000000 0.000000 -1.164732 0.747178 -7.585936 -6.343011 -0.417905 -12.900108 -1.842388 -13.456623 19.594045 0.000000 0.000000 0.000000 5.660944 -0.082376 -1.577945 -6.563278 3.077331 -0.907917 -3.512515 21.444521 -6.663662 22.757643 -16.815152 -3.737473 0.000000 0.000000 0.000000 -7.635590 -7.597339 0.829679 -38.028745 -20.104805 2.697276 -67.692660 -47.797230 30.398994 0.000000 0.000000 0.000000 4.938177 6.255408 3.014576 37.527631 29.652842 6.118904 -3.491428 43.797542 1.701089 0.000000 0.000000 0.000000 
-0.033844 0.948072 -0.037746 0.907175 -18.864774 13.071879 4.608890 -0.448539 -13.309361 1.228761 -0.023430 -3.434507 0.891506 4.072552 15.032526 0.000000 0.000000 0.000000 -1.345108 0.751667 -7.574643 -6.398439 -0.411934 -12.477041 -2.420185 -14.151317 19.593046 0.000000 0.000000 0.000000 6.078781 -0.054834 -1.922073 -6.739568 3.155553 -0.941379 -3.344347 21.472255 -6.379883 22.772602 -16.918048 -3.649503 0.000000 0.000000 0.000000 -7.270446 -7.939281 0.980999 -37.927811 -22.138513 3.245627 -66.186644 -49.743527 30.857593 0.000000 0.000000 0.000000 5.087501 6.365583 3.121157 38.285821 30.521444 6.581834 -5.203118 45.300911 1.202506 0.000000 0.000000 0.000000 
-0.033572 0.948113 -0.037304 1.086918 -18.346207 12.950096 4.332923 -0.497845 -13.373838 1.396732 -0.043825 -3.336019 0.625186 3.722164 14.977891 0.000000 0.000000 0.000000 -1.750991 0.714110 -7.075316 -5.978503 -0.432896 -13.027912 -2.700289 -14.511637 19.853271 0.000000 0.000000 0.000000 6.179858 -0.061844 -1.892823 -6.790872 3.114820 -1.514505 -3.462275 21.856716 -6.053986 22.847488 -17.214781 -3.319487 0.000000 0.000000 0.000000 -7.006639 -7.914711 0.963196 -37.923385 -23.063612 3.462287 -65.449651 -50.910811 31.102024 0.000000 0.000000 0.000000 5.400873 6.136495 3.113383 39.755097 30.752450 7.013807 -6.201374 46.026317 0.923028 0.000000 0.000000 0.000000 
-0.033258 0.948222 -0.036745 1.436278 -17.701952 12.758705 3.873642 -0.568353 -13.226339 1.574183 -0.046443 -3.604500 0.259360 3.253527 15.057272 0.000000 0.000000 0.000000 -2.204926 0.679189 -6.539236 -5.785633 -0.457390 -13.539579 -3.060233 -14.970132 20.140331 0.000000 0.000000 0.000000 6.292365 -0.013181 -2.359801 -7.103427 3.279134 -1.350613 -3.501854 21.936835 -5.927791 22.822028 -17.432606 -2.922785 0.000000 0.000000 0.000000 -7.170361 -8.238775 1.008681 -37.675531 -23.549785 3.576067 -64.049021 -51.224364 30.430872 0.000000 0.000000 0.000000 6.045506 5.933442 3.141842 41.156532 30.625074 7.275063 -6.287109 45.313359 0.907160 0.000000 0.000000 0.000000 
-0.032935 0.947678 -0.036185 1.496868 -17.315526 12.688964 3.771357 -0.587468 -13.126813 1.630209 -0.043217 -3.750158 0.083317 2.999836 14.880308 0.000000 0.000000 0.000000 -2.394924 0.637898 -5.988590 -5.552431 -0.482781 -14.237793 -3.260727 -15.216034 20.337748 0.000000 0.000000 0.000000 6.649632 0.037806 -2.845562 -7.831663 3.616189 -1.427964 -3.370735 22.079333 -5.416980 22.211766 -16.935979 -2.994506 0.000000 0.000000 0.000000 -7.111976 -7.988812 0.909319 -37.663895 -23.832611 3.597235 -63.351440 -50.891620 29.755373 0.000000 0.000000 0.000000 6.602059 5.551943 3.062109 43.249655 30.463498 7.690715 -6.900728 43.412369 0.619537 0.000000 0.000000 0.000000 
-0.032617 0.947184 -0.035829 1.700410 -17.181991 12.600969 3.463287 -0.626101 -13.135554 1.764975 -0.058570 -3.698852 0.028841 2.906842 14.736743 0.000000 0.000000 0.000000 -2.712195 0.618991 -5.602832 -5.401639 -0.499110 -14.787944 -3.360430 -15.336968 20.434564 0.000000 0.000000 0.000000 6.570833 0.063295 -3.056816 -8.060978 3.754901 -1.176038 -3.486252 22.415433 -5.316623 21.602254 -16.343368 -3.219216 0.000000 0.000000 0.000000 -7.550998 -7.785105 0.690568 -37.631743 -23.208701 3.439435 -62.712246 -49.398882 28.237202 0.000000 0.000000 0.000000 7.604493 4.997131 2.983147 45.399070 30.094617 8.019608 -6.263538 42.241121 0.856477 0.000000 0.000000 0.000000 
-0.032340 0.946743 -0.035835 1.836344 -16.740549 12.518464 3.410073 -0.642674 -13.228655 1.624073 -0.048545 -3.599486 -0.179735 2.610421 14.579904 0.000000 0.000000 0.000000 -2.827034 0.599313 -5.305624 -5.420741 -0.518345 -15.083969 -3.612056 -15.637630 20.522787 0.000000 0.000000 0.000000 6.238653 0.078031 -3.178513 -8.026022 3.752959 -1.031940 -3.463806 22.460040 -5.134190 20.966811 -15.520848 -3.842457 0.000000 0.000000 0.000000 -7.771685 -7.533206 0.520236 -37.966114 -22.519471 3.270552 -62.747524 -47.498845 26.877552 0.000000 0.000000 0.000000 8.373746 4.565751 2.913047 47.003263 28.931746 7.850068 -5.031322 42.007772 1.333831 0.000000 0.000000 0.000000 
-0.032188 0.946164 -0.036006 1.926599 -16.247580 12.686260 3.175737 -0.689286 -13.638671 1.922754 -0.085022 -3.421708 -0.392617 2.304997 14.408433 0.000000 0.000000 0.000000 -2.823634 0.586792 -5.151218 -5.545312 -0.552319 -15.583133 -3.868854 -15.968268 20.733241 0.000000 0.000000 0.000000 6.049926 0.094733 -3.364713 -8.027430 3.765814 -0.892878 -3.612647 22.254619 -5.010090 20.122052 -15.235565 -2.976033 0.000000 0.000000 0.000000 -7.796618 -7.411860 0.457819 -37.692817 -22.054700 3.112788 -64.685562 -46.427494 27.067606 0.000000 0.000000 0.000000 8.916796 3.932737 2.685660 48.143345 26.949249 7.210359 -2.291440 44.111696 2.547836 0.000000 0.000000 0.000000 
-0.032160 0.946365 -0.036283 1.871101 -16.207106 12.648094 3.148916 -0.690527 -13.585041 2.078789 -0.098288 -3.454542 -0.419534 2.275698 14.457435 0.000000 0.000000 0.000000 -2.847273 0.584384 -5.111695 -5.381871 -0.544373 -15.569822 -3.876209 -15.981718 20.775395 0.000000 0.000000 0.000000 5.523143 0.097516 -3.347574 -7.601104 3.634663 -0.234685 -3.998728 22.087513 -5.599976 19.361383 -15.217183 -1.591771 0.000000 0.000000 0.000000 -7.342399 -6.947296 0.373656 -36.925820 -21.974105 3.036762 -66.921076 -45.676476 27.573891 0.000000 0.000000 0.000000 8.974853 2.652093 2.069971 49.208817 24.694386 6.514926 2.217209 48.370826 4.975768 0.000000 0.000000 0.000000 
-0.032317 0.946168 -0.036429 1.561053 -15.925253 12.836552 3.535960 -0.655066 -13.770919 2.032564 -0.094976 -3.411055 -0.519711 2.127554 14.329599 0.000000 0.000000 0.000000 -2.522464 0.560621 -5.004964 -5.295941 -0.557335 -15.891609 -3.953285 -16.089514 20.974741 0.000000 0.000000 0.000000 5.587107 0.108650 -3.488050 -7.561392 3.628499 -0.097357 -3.884728 21.430339 -5.535058 18.426472 -15.058339 -0.163552 0.000000 0.000000 0.000000 -6.654212 -6.569488 0.450065 -35.790891 -21.610933 2.792851 -71.837867 -45.255944 29.918863 0.000000 0.000000 0.000000 8.490803 1.505311 1.389693 49.414893 21.848889 5.379664 9.881052 54.149600 9.699244 0.000000 0.000000 0.000000 
-0.032579 0.946427 -0.036404 1.514054 -16.102230 12.756819 3.459551 -0.655930 -13.577294 2.257631 -0.112143 -3.504579 -0.443896 2.238894 14.410505 0.000000 0.000000 0.000000 -2.592601 0.549973 -4.831686 -5.069920 -0.547308 -16.071904 -3.835537 -15.953360 21.045085 0.000000 0.000000 0.000000 5.380129 0.105810 -3.429918 -7.382947 3.564660 0.094677 -4.213039 20.961222 -5.845050 17.829615 -15.002167 0.919882 0.000000 0.000000 0.000000 -6.144963 -6.178596 0.462701 -34.476283 -21.362070 2.605453 -75.299342 -45.340505 31.980468 0.000000 0.000000 0.000000 8.106987 0.355734 0.754374 49.674773 18.985001 4.263979 20.729348 60.336294 17.652238 0.000000 0.000000 0.000000 
-0.032923 0.946546 -0.036360 1.336791 -16.482337 12.790183 3.664134 -0.624696 -13.689670 2.222650 -0.130956 -3.132544 -0.224613 2.519638 14.333997 0.000000 0.000000 0.000000 -2.799779 0.553384 -4.732977 -4.382243 -0.507676 -16.336797 -3.620582 -15.696537 21.070364 0.000000 0.000000 0.000000 5.224742 0.130609 -3.635194 -6.969679 3.360591 0.044283 -4.462301 20.804037 -5.685806 17.928326 -15.083192 0.916010 0.000000 0.000000 0.000000 -5.789352 -5.748345 0.419454 -32.994154 -21.098144 2.377340 -79.124302 -45.027768 33.984736 0.000000 0.000000 0.000000 7.762824 -1.132880 -0.000461 49.409073 16.852840 3.364987 34.361022 65.119902 28.758185 0.000000 0.000000 0.000000 
-0.033368 0.946682 -0.036337 1.230144 -16.838656 12.893403 3.824886 -0.599083 -13.717717 2.150265 -0.127386 -3.088141 -0.043998 2.770548 14.384865 0.000000 0.000000 0.000000 -2.980057 0.571757 -4.831972 -3.870401 -0.471368 -16.408035 -3.440496 -15.476006 21.041470 0.000000 0.000000 0.000000 5.136452 0.149860 -3.814076 -6.857521 3.266208 -0.341018 -4.276116 20.489162 -5.424155 17.645564 -15.050302 1.435916 0.000000 0.000000 0.000000 -5.723871 -5.364632 0.350415 -32.366174 -20.870015 2.241119 -81.106520 -45.094526 35.468578 0.000000 0.000000 0.000000 7.634733 -1.995362 -0.460795 48.805827 15.325771 2.641431 48.057562 67.404297 40.109148 0.000000 0.000000 0.000000 
-0.033767 0.946726 -0.036656 1.333960 -17.503361 12.843873 3.807693 -0.585490 -13.602508 1.970015 -0.112771 -3.067595 0.268824 3.200733 14.488110 0.000000 0.000000 0.000000 -3.209323 0.578588 -4.738450 -3.704488 -0.450601 -16.778214 -3.096915 -15.074391 21.058273 0.000000 0.000000 0.000000 5.070755 0.218645 -4.422430 -6.933954 3.400675 0.495121 -4.489504 20.232139 -5.789107 17.242746 -15.307052 2.865499 0.000000 0.000000 0.000000 -5.600616 -4.401808 0.067877 -32.534355 -21.197365 2.326634 -80.623492 -44.970583 35.211661 0.000000 0.000000 0.000000 7.818535 -2.388110 -0.679621 48.641636 15.232028 2.587534 51.547850 68.460707 43.460749 0.000000 0.000000 0.000000 
